<?xml version="1.0" encoding="utf-8"?>
<!-- Generator: Adobe Illustrator 24.0.1, SVG Export Plug-In . SVG Version: 6.00 Build 0)  -->
<svg version="1.1" id="Calque_1" xmlns="http://www.w3.org/2000/svg" xmlns:xlink="http://www.w3.org/1999/xlink" x="0px" y="0px"
	 viewBox="0 0 283.46 283.46" style="enable-background:new 0 0 283.46 283.46;" xml:space="preserve">
<style type="text/css">
	.st0{fill:#DD9C00;}
	.st1{fill:#7B7F84;}
	.st2{fill:#9C743B;}
	.st3{fill:#FFFFFF;}
	.st4{fill:#020304;}
	.st5{fill:none;stroke:#020304;stroke-width:4;stroke-linecap:round;stroke-miterlimit:10;}
	.st6{fill:none;stroke:#020304;stroke-width:4;stroke-linecap:round;stroke-linejoin:round;stroke-miterlimit:10;}
	.st7{fill:#020203;}
	.st8{fill:#030305;}
	.st9{fill:#DD9C00;stroke:#000000;stroke-width:4;stroke-miterlimit:10;}
	.st10{fill:none;stroke:#020304;stroke-width:4;stroke-miterlimit:10;}
	.st11{fill:#7B7F84;stroke:#000000;stroke-width:4;stroke-miterlimit:10;}
	.st12{fill:#9C743B;stroke:#000000;stroke-width:4;stroke-miterlimit:10;}
	.st13{fill:#FFFFFF;stroke:#000000;stroke-width:4;stroke-miterlimit:10;}
	.st14{fill:#FFFFFF;stroke:#020304;stroke-width:4;stroke-miterlimit:10;}
	.st15{fill:none;stroke:#DD9C00;stroke-width:5;stroke-miterlimit:10;}
	.st16{fill:none;stroke:#DD9C00;stroke-width:5;stroke-linecap:round;stroke-miterlimit:10;}
	.st17{fill:none;stroke:#7B7F84;stroke-width:5;stroke-miterlimit:10;}
	.st18{fill:none;stroke:#7B7F84;stroke-width:5;stroke-linecap:round;stroke-miterlimit:10;}
	.st19{fill:none;stroke:#9C743B;stroke-width:5;stroke-miterlimit:10;}
	.st20{fill:none;stroke:#9C743B;stroke-width:5;stroke-linecap:round;stroke-miterlimit:10;}
</style>
<g>
	<circle class="st17" cx="217.54" cy="129.27" r="11.02"/>
	<path class="st18" d="M217.99,197.66l-0.44-55.88c0-0.41-0.4-0.69-0.79-0.56l-35.27,11.95c-0.23,0.08-0.49,0.01-0.65-0.18
		l-38.51-46.48c-0.24-0.28-0.67-0.29-0.91-0.01L101.88,153c-0.16,0.19-0.42,0.26-0.65,0.18l-34.17-11.93
		c-0.39-0.14-0.79,0.15-0.79,0.56l0.15,55.86"/>
	<path class="st17" d="M66.42,197.66c0,0,6.17,14.37,75.49,14.37"/>
	<path class="st17" d="M217.99,197.66c0,0-6.76,14.37-76.08,14.37"/>
	<path class="st17" d="M217.99,197.66c0,0-6.62-14.37-75.93-14.37"/>
	<path class="st17" d="M66.42,197.66c0,0,6.32-14.37,75.64-14.37"/>
	<circle class="st17" cx="66.27" cy="129.27" r="11.02"/>
</g>
<path class="st1" d="M127.43,82.18c0.16,0.39,0.32,0.82,0.48,1.18c0.26,0.59,0.51,1.15,0.74,1.68l0.03,0.03
	c2.21,4.93,4.59,9.93,7.09,14.86l0.1,0.2c0.26,0.49,0.51,1.02,0.77,1.54c0.32,0.59,0.64,1.22,1.16,1.81c0.43,0.55,0.95,1,1.51,1.34
	c0.78,0.46,1.65,0.7,2.56,0.7c1.6,0,3.05-0.72,4.11-1.97c0.48-0.59,0.83-1.22,1.16-1.81c0.26-0.53,0.51-1.05,0.77-1.54l0.1-0.2
	c2.47-4.93,4.88-9.93,7.09-14.86l0.03-0.07c0.22-0.53,0.48-1.08,0.74-1.68c0.16-0.36,0.32-0.76,0.48-1.18
	c0.42-1.22,0.55-2.37,0.39-3.55c-0.35-2.47-1.96-4.54-4.17-5.46c-0.83-0.36-1.7-0.53-2.6-0.53c-0.26,0-0.58,0.03-0.83,0.07
	c-1.06,0.13-2.15,0.49-3.21,1.12c-1.32,0.76-2.57,1.84-3.98,3.42c-1.41-1.58-2.7-2.66-3.98-3.42c-1.06-0.62-2.15-0.99-3.21-1.12
	c-0.26-0.03-0.58-0.07-0.83-0.07c-0.9,0-1.8,0.16-2.6,0.53c-2.25,0.92-3.82,3.02-4.17,5.46C126.88,79.81,127.01,80.97,127.43,82.18z
	 M141.9,80.47c1.73,2.24,2.86,4.34,3.24,6.11c0.16,0.76,0.19,1.41,0.1,2.01c-0.06,0.53-0.26,0.99-0.51,1.38
	c-0.61,0.89-1.64,1.45-2.82,1.45s-2.25-0.53-2.82-1.45c-0.26-0.39-0.45-0.85-0.51-1.38c-0.1-0.59-0.06-1.28,0.1-2.01
	C139.05,84.84,140.17,82.74,141.9,80.47z M129.1,78.93c0.22-1.71,1.35-3.19,2.92-3.85c0.77-0.33,1.6-0.43,2.44-0.33
	c0.8,0.1,1.6,0.36,2.44,0.85c1.16,0.66,2.31,1.68,3.66,3.19c-2.12,2.66-3.4,5.09-3.88,7.26c-0.22,1.02-0.26,1.94-0.16,2.79
	c0.13,0.82,0.42,1.58,0.87,2.24c1,1.48,2.66,2.33,4.53,2.33s3.53-0.89,4.53-2.33c0.45-0.66,0.74-1.41,0.87-2.24
	c0.13-0.85,0.1-1.81-0.16-2.79c-0.48-2.17-1.8-4.63-3.88-7.3c1.32-1.51,2.5-2.53,3.66-3.19c0.83-0.49,1.64-0.76,2.44-0.85
	c0.87-0.1,1.7,0.03,2.44,0.33c1.57,0.66,2.7,2.14,2.92,3.85c0.1,0.82,0.03,1.64-0.29,2.56c-0.1,0.33-0.26,0.66-0.42,1.05
	c-0.22,0.53-0.48,1.08-0.74,1.64l-0.03,0.07c-2.21,4.9-4.59,9.89-7.06,14.76l-0.1,0.2c-0.26,0.49-0.51,1.02-0.77,1.51
	c-0.26,0.53-0.55,1.02-0.9,1.45c-0.67,0.79-1.57,1.22-2.57,1.22s-1.89-0.43-2.57-1.22c-0.35-0.43-0.64-0.92-0.9-1.45
	c-0.26-0.49-0.51-1.02-0.77-1.51l-0.1-0.2c-2.44-4.9-4.81-9.89-7.03-14.79v-0.03c-0.26-0.53-0.48-1.12-0.74-1.64
	c-0.16-0.39-0.32-0.72-0.42-1.05C129.07,80.6,128.97,79.78,129.1,78.93z"/>
<path class="st1" d="M124.5,80.45c0.19,0.46,0.38,0.96,0.58,1.38c0.31,0.69,0.61,1.34,0.88,1.96l0.04,0.04
	c2.65,5.75,5.48,11.58,8.48,17.34l0.12,0.23c0.31,0.58,0.61,1.19,0.92,1.8c0.38,0.69,0.77,1.42,1.38,2.11
	c0.52,0.65,1.13,1.17,1.81,1.56c0.93,0.53,1.98,0.82,3.06,0.82c1.92,0,3.64-0.84,4.91-2.3c0.58-0.69,1-1.42,1.38-2.11
	c0.31-0.61,0.61-1.23,0.92-1.8l0.12-0.23c2.95-5.75,5.83-11.58,8.48-17.34l0.04-0.08c0.27-0.61,0.58-1.27,0.88-1.96
	c0.19-0.42,0.38-0.88,0.58-1.38c0.5-1.42,0.65-2.76,0.46-4.14c-0.42-2.88-2.34-5.29-4.99-6.37c-1-0.42-2.03-0.61-3.11-0.61
	c-0.31,0-0.69,0.04-1,0.08c-1.27,0.15-2.57,0.58-3.84,1.3c-1.57,0.88-3.07,2.15-4.76,3.99c-1.69-1.84-3.22-3.11-4.76-3.99
	c-1.27-0.73-2.57-1.15-3.84-1.3c-0.31-0.04-0.69-0.08-1-0.08c-1.07,0-2.15,0.19-3.11,0.61c-2.68,1.07-4.56,3.53-4.99,6.37
	C123.85,77.69,124,79.03,124.5,80.45z M141.8,78.45c2.07,2.61,3.41,5.06,3.87,7.13c0.19,0.88,0.23,1.65,0.12,2.34
	c-0.08,0.61-0.31,1.15-0.61,1.61c-0.73,1.04-1.96,1.69-3.38,1.69c-1.42,0-2.68-0.61-3.38-1.69c-0.31-0.46-0.54-1-0.61-1.61
	c-0.12-0.69-0.08-1.5,0.12-2.34C138.39,83.55,139.73,81.1,141.8,78.45z M126.5,76.65c0.27-1.99,1.61-3.72,3.49-4.49
	c0.92-0.38,1.92-0.5,2.91-0.38c0.96,0.12,1.92,0.42,2.91,1c1.38,0.77,2.76,1.96,4.37,3.72c-2.53,3.11-4.07,5.95-4.64,8.48
	c-0.27,1.19-0.31,2.26-0.19,3.26c0.15,0.96,0.5,1.84,1.04,2.61c1.19,1.73,3.18,2.72,5.41,2.72c2.22,0,4.22-1.04,5.41-2.72
	c0.54-0.77,0.88-1.65,1.04-2.61c0.15-1,0.12-2.11-0.19-3.26c-0.58-2.53-2.15-5.41-4.64-8.51c1.57-1.76,2.99-2.95,4.37-3.72
	c1-0.58,1.96-0.88,2.91-1c1.04-0.12,2.03,0.04,2.91,0.38c1.88,0.77,3.22,2.49,3.49,4.49c0.12,0.96,0.04,1.92-0.35,2.99
	c-0.12,0.38-0.31,0.77-0.5,1.23c-0.27,0.61-0.58,1.27-0.88,1.92l-0.04,0.08c-2.65,5.71-5.48,11.54-8.44,17.22l-0.12,0.23
	c-0.31,0.58-0.61,1.19-0.92,1.76c-0.31,0.61-0.65,1.19-1.07,1.69c-0.81,0.92-1.88,1.42-3.07,1.42s-2.26-0.5-3.07-1.42
	c-0.42-0.5-0.77-1.07-1.07-1.69c-0.31-0.58-0.61-1.19-0.92-1.76l-0.12-0.23c-2.91-5.71-5.75-11.54-8.4-17.26v-0.04
	c-0.31-0.61-0.58-1.3-0.88-1.92c-0.19-0.46-0.38-0.84-0.5-1.23C126.46,78.61,126.34,77.65,126.5,76.65z"/>
<polygon class="st1" points="136.74,71.7 131.4,70.7 127.01,72.43 125.35,77.65 126.43,81.74 128.67,76.22 131.58,74.38 
	135.97,73.97 "/>
<polygon class="st1" points="143.82,72.76 148.99,70.7 152.9,70.7 156.24,72.68 159.52,76.34 156.26,80.83 152.56,73.2 
	145.92,73.84 "/>
</svg>
