<?xml version="1.0" encoding="utf-8"?>
<!-- Generator: Adobe Illustrator 24.0.1, SVG Export Plug-In . SVG Version: 6.00 Build 0)  -->
<svg version="1.1" id="Calque_1" xmlns="http://www.w3.org/2000/svg" xmlns:xlink="http://www.w3.org/1999/xlink" x="0px" y="0px"
	 viewBox="0 0 283.46 283.46" style="enable-background:new 0 0 283.46 283.46;" xml:space="preserve">
<style type="text/css">
	.st0{fill:#DD9C00;}
	.st1{fill:#7B7F84;}
	.st2{fill:#9C743B;}
	.st3{fill:#FFFFFF;}
	.st4{fill:#020304;}
	.st5{fill:none;stroke:#020304;stroke-width:4;stroke-linecap:round;stroke-miterlimit:10;}
	.st6{fill:none;stroke:#020304;stroke-width:4;stroke-linecap:round;stroke-linejoin:round;stroke-miterlimit:10;}
	.st7{fill:#020203;}
	.st8{fill:#030305;}
	.st9{fill:#DD9C00;stroke:#000000;stroke-width:4;stroke-miterlimit:10;}
	.st10{fill:none;stroke:#020304;stroke-width:4;stroke-miterlimit:10;}
	.st11{fill:#7B7F84;stroke:#000000;stroke-width:4;stroke-miterlimit:10;}
	.st12{fill:#9C743B;stroke:#000000;stroke-width:4;stroke-miterlimit:10;}
	.st13{fill:#FFFFFF;stroke:#000000;stroke-width:4;stroke-miterlimit:10;}
	.st14{fill:#FFFFFF;stroke:#020304;stroke-width:4;stroke-miterlimit:10;}
	.st15{fill:none;stroke:#DD9C00;stroke-width:5;stroke-miterlimit:10;}
	.st16{fill:none;stroke:#DD9C00;stroke-width:5;stroke-linecap:round;stroke-miterlimit:10;}
	.st17{fill:none;stroke:#7B7F84;stroke-width:5;stroke-miterlimit:10;}
	.st18{fill:none;stroke:#7B7F84;stroke-width:5;stroke-linecap:round;stroke-miterlimit:10;}
	.st19{fill:none;stroke:#9C743B;stroke-width:5;stroke-miterlimit:10;}
	.st20{fill:none;stroke:#9C743B;stroke-width:5;stroke-linecap:round;stroke-miterlimit:10;}
</style>
<g>
	<path class="st7" d="M109.45,115.44c-3.45,0-6.25,2.8-6.25,6.25V235.3c0,3.45,2.8,6.25,6.25,6.25h38.86c3.46,0,6.25-2.8,6.25-6.25
		V121.7c0-3.45-2.8-6.25-6.25-6.25H109.45z M149.1,235.76h-40.51V120.52h40.51V235.76z"/>
	<path class="st7" d="M134.02,43.27c-1.17-1.69-3.09-2.7-5.15-2.7c-2.05,0-3.98,1.01-5.15,2.7c-3.43,4.97-20.54,30.34-20.54,42.41
		c0,14.16,11.52,25.68,25.68,25.68c14.16,0,25.68-11.52,25.68-25.68C154.56,73.61,137.45,48.23,134.02,43.27z M128.85,106.3
		c-11.17,0-20.26-9.09-20.26-20.25c0-6.44,8.76-23.68,19.01-40.24c0.57-0.92,1.92-0.92,2.5,0c10.24,16.56,19.01,33.8,19.01,40.24
		C149.1,97.22,140.02,106.3,128.85,106.3z"/>
</g>
<rect x="146.12" y="146.92" class="st3" width="10" height="65.04"/>
<g>
	<path class="st8" d="M143.24,210.44c0,0-4.76,1.34-4.76-4.76c0-1.38,0-5.98,0-11.9h-28.56c-2.63,0-4.76-2.14-4.76-4.76v-19.04
		c0-2.62,2.13-4.76,4.76-4.76h28.56c0-5.69,0-10.26,0-12.05c0-6.4,4.76-4.61,4.76-4.61l35.7,30.94L143.24,210.44z"/>
</g>
</svg>
