<?xml version="1.0" encoding="utf-8"?>
<!-- Generator: Adobe Illustrator 24.0.1, SVG Export Plug-In . SVG Version: 6.00 Build 0)  -->
<svg version="1.1" id="Calque_1" xmlns="http://www.w3.org/2000/svg" xmlns:xlink="http://www.w3.org/1999/xlink" x="0px" y="0px"
	 viewBox="0 0 283.46 283.46" style="enable-background:new 0 0 283.46 283.46;" xml:space="preserve">
<style type="text/css">
	.st0{fill:#DD9C00;}
	.st1{fill:#7B7F84;}
	.st2{fill:#9C743B;}
	.st3{fill:#FFFFFF;}
	.st4{fill:#020304;}
	.st5{fill:none;stroke:#020304;stroke-width:4;stroke-linecap:round;stroke-miterlimit:10;}
	.st6{fill:none;stroke:#020304;stroke-width:4;stroke-linecap:round;stroke-linejoin:round;stroke-miterlimit:10;}
	.st7{fill:#020203;}
	.st8{fill:#030305;}
	.st9{fill:#DD9C00;stroke:#000000;stroke-width:4;stroke-miterlimit:10;}
	.st10{fill:none;stroke:#020304;stroke-width:4;stroke-miterlimit:10;}
	.st11{fill:#7B7F84;stroke:#000000;stroke-width:4;stroke-miterlimit:10;}
	.st12{fill:#9C743B;stroke:#000000;stroke-width:4;stroke-miterlimit:10;}
	.st13{fill:#FFFFFF;stroke:#000000;stroke-width:4;stroke-miterlimit:10;}
	.st14{fill:#FFFFFF;stroke:#020304;stroke-width:4;stroke-miterlimit:10;}
	.st15{fill:none;stroke:#DD9C00;stroke-width:5;stroke-miterlimit:10;}
	.st16{fill:none;stroke:#DD9C00;stroke-width:5;stroke-linecap:round;stroke-miterlimit:10;}
	.st17{fill:none;stroke:#7B7F84;stroke-width:5;stroke-miterlimit:10;}
	.st18{fill:none;stroke:#7B7F84;stroke-width:5;stroke-linecap:round;stroke-miterlimit:10;}
	.st19{fill:none;stroke:#9C743B;stroke-width:5;stroke-miterlimit:10;}
	.st20{fill:none;stroke:#9C743B;stroke-width:5;stroke-linecap:round;stroke-miterlimit:10;}
</style>
<path class="st9" d="M100.16,72.33c7.97-4.74,23.67-11.53,40.38-4.58c22.86,9.51,30.99,28.34,65.65,3.43
	c2.97-2.14,5.3-1.02,5.3,2.64v64.88c0,3.66-2.01,8.81-4.78,11.2c-6.04,5.22-17.06,12.97-28.89,12.61
	c-17.73-0.56-34.91-19.4-50.99-19.4c-10.26,0-20.52,4.97-26.6,8.56c-3.15,1.86-5.54,0.66-5.54-3v-66
	C94.7,79.04,97.01,74.21,100.16,72.33z"/>
<path class="st10" d="M80.29,54.98c-5.37,0-9.73,4.36-9.73,9.73c0,1.38,0.29,2.69,0.81,3.87c0.88,2.01,2.29,6.19,2.29,9.85v143.44
	c0,3.66,2.97,6.63,6.63,6.63s6.63-2.97,6.63-6.63V78.42c0-3.66,1.4-7.83,2.29-9.85c0.52-1.18,0.81-2.49,0.81-3.87
	C90.01,59.34,85.66,54.98,80.29,54.98z"/>
</svg>
