<?xml version="1.0" encoding="utf-8"?>
<!-- Generator: Adobe Illustrator 24.0.1, SVG Export Plug-In . SVG Version: 6.00 Build 0)  -->
<svg version="1.1" id="Calque_1" xmlns="http://www.w3.org/2000/svg" xmlns:xlink="http://www.w3.org/1999/xlink" x="0px" y="0px"
	 viewBox="0 0 283.46 283.46" style="enable-background:new 0 0 283.46 283.46;" xml:space="preserve">
<style type="text/css">
	.st0{fill:#DD9C00;}
	.st1{fill:#7B7F84;}
	.st2{fill:#9C743B;}
	.st3{fill:#FFFFFF;}
	.st4{fill:#020304;}
	.st5{fill:none;stroke:#020304;stroke-width:4;stroke-linecap:round;stroke-miterlimit:10;}
	.st6{fill:none;stroke:#020304;stroke-width:4;stroke-linecap:round;stroke-linejoin:round;stroke-miterlimit:10;}
	.st7{fill:#020203;}
	.st8{fill:#030305;}
	.st9{fill:#DD9C00;stroke:#000000;stroke-width:4;stroke-miterlimit:10;}
	.st10{fill:none;stroke:#020304;stroke-width:4;stroke-miterlimit:10;}
	.st11{fill:#7B7F84;stroke:#000000;stroke-width:4;stroke-miterlimit:10;}
	.st12{fill:#9C743B;stroke:#000000;stroke-width:4;stroke-miterlimit:10;}
	.st13{fill:#FFFFFF;stroke:#000000;stroke-width:4;stroke-miterlimit:10;}
	.st14{fill:#FFFFFF;stroke:#020304;stroke-width:4;stroke-miterlimit:10;}
	.st15{fill:none;stroke:#DD9C00;stroke-width:5;stroke-miterlimit:10;}
	.st16{fill:none;stroke:#DD9C00;stroke-width:5;stroke-linecap:round;stroke-miterlimit:10;}
	.st17{fill:none;stroke:#7B7F84;stroke-width:5;stroke-miterlimit:10;}
	.st18{fill:none;stroke:#7B7F84;stroke-width:5;stroke-linecap:round;stroke-miterlimit:10;}
	.st19{fill:none;stroke:#9C743B;stroke-width:5;stroke-miterlimit:10;}
	.st20{fill:none;stroke:#9C743B;stroke-width:5;stroke-linecap:round;stroke-miterlimit:10;}
	.st21{fill:none;stroke:#FFFFFF;stroke-width:3;stroke-miterlimit:10;}
	.st22{fill:none;stroke:#FFFFFF;stroke-width:2;stroke-miterlimit:10;}
	.st23{fill:none;stroke:#FFFFFF;stroke-width:2;stroke-linecap:round;stroke-miterlimit:10;}
</style>
<g>
	<rect x="21.34" y="21.34" class="st0" width="240.79" height="240.79"/>
	<g>
		<polyline class="st21" points="63.45,124.71 63.45,177.14 97.73,177.14 		"/>
		<polyline class="st21" points="220.27,110.55 220.27,58.12 185.99,58.12 		"/>
	</g>
	<g>
		<path class="st3" d="M87.89,210.06h0.41c1.52-0.01,2.33,0.16,2.34,1.46c0,0.38-0.29,1.93-1.2,1.94c-1.42,0.01-1.89-1.67-3.31-1.66
			l-0.25,0c-4.15,0.57-7.32,4.53-7.3,7.51c0.01,1.05,1.28,1.8,2.6,1.79h0.1c7.86-0.04,8.89-11.13,12.95-11.15
			c1.06,0,1.42,0.21,1.43,0.75c0.01,1.97-1.65,3.83-3.26,5.6c-0.71,0.59-1.97,2.11-1.96,2.91c0,0.34,0.36,1.3,1.33,1.3
			c1.37-0.01,4.65-2.33,6.06-3.22l0.36,0.59c-1.11,0.8-8.28,5.75-10.46,5.8h-0.15c-1.57,0.01-1.78-0.66-1.79-1.59
			c0-0.55,0.14-1.22,0.39-1.85c0-0.08-0.05-0.12-0.1-0.12c-0.05,0-0.15,0.04-0.25,0.13c-1.76,1.94-4.64,3.64-7.53,3.65
			c-2.08,0.01-4.21-0.82-4.23-2.92C74.04,216.13,82.16,210.09,87.89,210.06z"/>
		<path class="st3" d="M102.47,215.2c-0.2,0-1.31,0.72-1.31,0.72l-3.33,2.2l-0.31-0.63l0.3-0.21c1.47-0.97,4.65-3.01,5.7-4.23
			c0.4-0.34,3.02-3.2,3.37-3.67c0.71-0.67,1.56-1.22,2.63-1.23c0.91,0,1.52,0.37,1.53,1.09c0.02,2.94-5.44,4.77-5.41,8.97
			c0.01,1.3,0.87,1.89,2.49,1.88c2.38-0.01,4.35-1.32,6.32-2.63l0.4-0.25l0.31,0.63c-3.13,2.16-7.06,5.24-11.62,5.64
			c-1.93,0.01-2.69-1.08-2.76-2.8C100.77,219.07,101.67,216.88,102.47,215.2z M113.03,194.49c0.15-0.38,1.21-0.59,2.33-0.6
			c1.37-0.01,2.74,0.19,2.74,0.53c0,0.04,0,0.08-0.05,0.13c-1.25,1.85-4.58,5.36-6.1,5.36c-0.35,0-0.91,0-0.92-0.42
			C111.03,199.49,110.98,199.33,113.03,194.49z"/>
		<path class="st3" d="M135.94,217.56c-1.26,1.01-9.23,6.51-11.82,6.52c-1.77,0.01-2.39-0.96-2.4-2.09c0-0.8,0.29-1.72,0.74-2.48
			c0.4-0.8,2.96-4.55,3.61-5.77c-1.21,0.55-2.28,0.64-3.29,0.65c-1.52,0.01-1.73-0.24-1.98-0.24c-2.47,1.69-5.45,3.6-7.37,4.78
			c-0.05-0.04-0.1-0.21-0.1-0.33c0-0.08,0-0.21,0.05-0.38c2.98-2.2,4.44-2.75,6.36-4.52c-0.82-0.58-1.38-2.05-1.39-3.35
			c-0.01-1.39,0.59-2.65,2.21-2.66c1.73-0.01,2.4,1.54,2.41,3.01c0,0.34-0.1,0.93-0.1,0.93l0.41,0c1.93-0.01,3.44-1.28,5.21-1.29
			c1.22-0.01,1.78,0.54,1.78,1.29c0,0.46-0.25,1.05-0.6,1.56c-0.75,1.05-3.11,4.93-3.1,6.82c0,0.63,0.26,1.01,0.97,1
			c2.74-0.01,6.32-2.97,7.88-3.9L135.94,217.56z"/>
		<path class="st3" d="M139.85,217.67c0-0.88,0.04-1.77,0.14-2.48c-0.71,0.3-3.59,2.08-4.54,2.75c0,0-0.41-0.13-0.41-0.55
			c1.41-1.06,4.14-2.71,5.45-4.18c4.61-8.26,13.6-19.68,20.3-19.71c0.86,0,1.93,0.71,1.94,1.76c0.04,6.34-16.32,15.87-17.67,17.72
			c-0.39,1.64-1.14,3.95-1.13,5.59c0,0.92,0.26,1.64,1.03,1.8c0.2,0.04,0.35,0.08,0.56,0.08c3.45-0.02,5.88-8.01,6.31-10.32
			c0.05-0.13,0.1-0.3,0.1-0.42c0.05-0.17,0.4-0.3,0.35-0.25c0.15-0.13,0.91-0.17,1.47-0.18c0.46,0,0.97,0.12,1.17,0.75
			c0.01,1.77-1.64,4.16-1.63,5.63c0.01,1.89,0.63,2.69,1.64,2.68c0.81,0,1.87-0.47,3.08-1.36c0,0,0.25,0.33,0.36,0.59
			c-1.46,1.01-2.63,1.57-3.84,1.57c-0.96,0-1.93-0.46-3.05-1.54c-0.91,0-4.22,6.02-8.17,6.04
			C140.54,223.59,139.86,220.49,139.85,217.67z M146.08,210.12c3.94-2.62,11.52-6.78,12.19-11.57c0-0.38-0.16-1.22-1.02-1.21
			C153.34,197.36,147.22,206.72,146.08,210.12z"/>
		<path class="st3" d="M159.39,222.5c0.85-1.81,4.11-6.4,4.3-8.29c-1.87,1.02-2.68,1.65-5.7,3.64l-0.26-0.67
			c0.86-0.59,5.1-3.17,6.46-4.69c0.5-0.59,1.75-3.28,2.3-3.96c0.2-0.3,0.71-0.47,1.31-0.47c0.81,0,1.78,0.33,1.78,1.17
			c0.02,2.73-3,5.98-4.45,8.97c5.24-4.6,8.06-7.81,10.49-7.82h0.1c1.17,0.04,1.53,1.3,1.54,2.81c0.01,2.22-0.68,5-0.77,5.55
			c0,0.38,0.26,0.55,0.61,0.54c1.37-0.09,3.69-1.53,5-2.37c0.05-0.05,0.26,0.5,0.26,0.63v0.04c-2.32,1.52-7.11,5.49-9.29,5.5
			c-0.81,0-1.32-0.16-1.33-1.17c-0.02-2.44,2-4.54,1.98-7.06c-0.01-0.97-0.51-0.96-0.72-0.96c-2.13,0.01-7.01,5.24-8.27,6.84
			c-0.2,0.25-1.71,2.19-1.96,2.41c-0.35,0.21-0.96,0.38-1.62,0.38c-0.81,0-1.67-0.24-1.78-0.91V222.5z"/>
		<path class="st3" d="M186.52,217.46c0-0.88,0.04-1.77,0.14-2.48c-0.71,0.3-3.59,2.08-4.54,2.75c0,0-0.41-0.13-0.41-0.55
			c1.41-1.06,4.14-2.71,5.45-4.19c4.61-8.26,13.61-19.68,20.3-19.71c0.86,0,1.93,0.71,1.94,1.76c0.04,6.34-16.32,15.87-17.68,17.73
			c-0.39,1.64-1.14,3.95-1.13,5.59c0,0.92,0.26,1.64,1.03,1.8c0.2,0.04,0.35,0.08,0.56,0.08c3.45-0.02,5.88-8.01,6.32-10.32
			c0.05-0.13,0.1-0.29,0.1-0.42c0.05-0.17,0.4-0.3,0.35-0.25c0.15-0.13,0.91-0.17,1.47-0.17c0.46,0,0.97,0.12,1.17,0.75
			c0.01,1.77-1.64,4.17-1.63,5.64c0.01,1.89,0.63,2.69,1.64,2.68c0.81,0,1.87-0.47,3.08-1.36c0,0,0.25,0.34,0.36,0.59
			c-1.46,1.01-2.63,1.57-3.84,1.57c-0.96,0-1.93-0.45-3.05-1.54c-0.91,0-4.22,6.03-8.17,6.04
			C187.22,223.37,186.54,220.27,186.52,217.46z M192.76,209.91c3.94-2.62,11.52-6.77,12.19-11.57c0-0.38-0.16-1.22-1.02-1.21
			C200.02,197.14,193.9,206.5,192.76,209.91z"/>
	</g>
	<g>
		<g>
			<circle class="st22" cx="189.68" cy="106.28" r="6.99"/>
			<path class="st23" d="M189.97,149.66l-0.28-35.44c0-0.26-0.25-0.44-0.5-0.35l-22.37,7.58c-0.15,0.05-0.31,0-0.41-0.12
				l-24.42-29.48c-0.15-0.18-0.43-0.18-0.58,0l-25.08,29.48c-0.1,0.12-0.26,0.16-0.41,0.11l-21.67-7.57c-0.25-0.09-0.5,0.1-0.5,0.36
				l0.09,35.42"/>
			<path class="st22" d="M93.84,149.66c0,0,3.91,9.11,47.87,9.11"/>
			<path class="st22" d="M189.97,149.66c0,0-4.29,9.11-48.25,9.11"/>
			<path class="st22" d="M189.97,149.66c0,0-4.2-9.11-48.16-9.11"/>
			<path class="st22" d="M93.84,149.66c0,0,4.01-9.11,47.97-9.11"/>
			<circle class="st22" cx="93.75" cy="106.28" r="6.99"/>
		</g>
		<path class="st3" d="M132.54,77.55c0.1,0.24,0.2,0.51,0.31,0.73c0.16,0.37,0.33,0.71,0.47,1.04l0.02,0.02
			c1.4,3.05,2.91,6.15,4.5,9.2l0.06,0.12c0.16,0.31,0.33,0.63,0.49,0.96c0.2,0.37,0.41,0.75,0.73,1.12c0.27,0.34,0.6,0.62,0.96,0.83
			c0.49,0.28,1.05,0.43,1.62,0.43c1.02,0,1.93-0.45,2.61-1.22c0.31-0.37,0.53-0.75,0.73-1.12c0.16-0.33,0.33-0.65,0.49-0.96
			l0.06-0.12c1.57-3.05,3.09-6.15,4.5-9.2l0.02-0.04c0.14-0.33,0.31-0.67,0.47-1.04c0.1-0.22,0.2-0.47,0.31-0.73
			c0.26-0.75,0.35-1.47,0.24-2.2c-0.22-1.53-1.24-2.81-2.65-3.38c-0.53-0.22-1.08-0.33-1.65-0.33c-0.16,0-0.37,0.02-0.53,0.04
			c-0.67,0.08-1.36,0.31-2.04,0.69c-0.83,0.47-1.63,1.14-2.52,2.12c-0.9-0.98-1.71-1.65-2.52-2.12c-0.67-0.39-1.36-0.61-2.04-0.69
			c-0.16-0.02-0.37-0.04-0.53-0.04c-0.57,0-1.14,0.1-1.65,0.33c-1.42,0.57-2.42,1.87-2.65,3.38
			C132.2,76.08,132.28,76.79,132.54,77.55z M141.72,76.49c1.1,1.38,1.81,2.69,2.06,3.79c0.1,0.47,0.12,0.88,0.06,1.24
			c-0.04,0.33-0.16,0.61-0.33,0.85c-0.39,0.55-1.04,0.9-1.79,0.9c-0.75,0-1.42-0.33-1.79-0.9c-0.16-0.24-0.28-0.53-0.33-0.85
			c-0.06-0.37-0.04-0.79,0.06-1.24C139.91,79.2,140.62,77.89,141.72,76.49z M133.6,75.53c0.14-1.06,0.85-1.97,1.85-2.38
			c0.49-0.2,1.02-0.26,1.55-0.2c0.51,0.06,1.02,0.22,1.55,0.53c0.73,0.41,1.47,1.04,2.32,1.97c-1.34,1.65-2.16,3.16-2.46,4.5
			c-0.14,0.63-0.16,1.2-0.1,1.73c0.08,0.51,0.26,0.98,0.55,1.38c0.63,0.92,1.69,1.45,2.87,1.45c1.18,0,2.24-0.55,2.87-1.45
			c0.28-0.41,0.47-0.88,0.55-1.38c0.08-0.53,0.06-1.12-0.1-1.73c-0.31-1.34-1.14-2.87-2.46-4.52c0.83-0.94,1.59-1.57,2.32-1.97
			c0.53-0.31,1.04-0.47,1.55-0.53c0.55-0.06,1.08,0.02,1.55,0.2c1,0.41,1.71,1.32,1.85,2.38c0.06,0.51,0.02,1.02-0.18,1.59
			c-0.06,0.2-0.16,0.41-0.26,0.65c-0.14,0.33-0.31,0.67-0.47,1.02l-0.02,0.04c-1.4,3.03-2.91,6.13-4.48,9.14l-0.06,0.12
			c-0.16,0.31-0.33,0.63-0.49,0.94c-0.16,0.33-0.35,0.63-0.57,0.9c-0.43,0.49-1,0.75-1.63,0.75c-0.63,0-1.2-0.26-1.63-0.75
			c-0.22-0.26-0.41-0.57-0.57-0.9c-0.16-0.31-0.33-0.63-0.49-0.94l-0.06-0.12c-1.55-3.03-3.05-6.13-4.46-9.16v-0.02
			c-0.16-0.33-0.31-0.69-0.47-1.02c-0.1-0.24-0.2-0.45-0.26-0.65C133.58,76.57,133.52,76.06,133.6,75.53z"/>
	</g>
</g>
</svg>
