<?xml version="1.0" encoding="utf-8"?>
<!-- Generator: Adobe Illustrator 24.0.1, SVG Export Plug-In . SVG Version: 6.00 Build 0)  -->
<svg version="1.1" id="Calque_1" xmlns="http://www.w3.org/2000/svg" xmlns:xlink="http://www.w3.org/1999/xlink" x="0px" y="0px"
	 viewBox="0 0 283.46 283.46" style="enable-background:new 0 0 283.46 283.46;" xml:space="preserve">
<style type="text/css">
	.st0{fill:#DD9C00;}
	.st1{fill:#7B7F84;}
	.st2{fill:#9C743B;}
	.st3{fill:#FFFFFF;}
	.st4{fill:#020304;}
	.st5{fill:none;stroke:#020304;stroke-width:4;stroke-linecap:round;stroke-miterlimit:10;}
	.st6{fill:none;stroke:#020304;stroke-width:4;stroke-linecap:round;stroke-linejoin:round;stroke-miterlimit:10;}
	.st7{fill:#020203;}
	.st8{fill:#030305;}
	.st9{fill:#DD9C00;stroke:#000000;stroke-width:4;stroke-miterlimit:10;}
	.st10{fill:none;stroke:#020304;stroke-width:4;stroke-miterlimit:10;}
	.st11{fill:#7B7F84;stroke:#000000;stroke-width:4;stroke-miterlimit:10;}
	.st12{fill:#9C743B;stroke:#000000;stroke-width:4;stroke-miterlimit:10;}
	.st13{fill:#FFFFFF;stroke:#000000;stroke-width:4;stroke-miterlimit:10;}
	.st14{fill:#FFFFFF;stroke:#020304;stroke-width:4;stroke-miterlimit:10;}
	.st15{fill:none;stroke:#DD9C00;stroke-width:5;stroke-miterlimit:10;}
	.st16{fill:none;stroke:#DD9C00;stroke-width:5;stroke-linecap:round;stroke-miterlimit:10;}
	.st17{fill:none;stroke:#7B7F84;stroke-width:5;stroke-miterlimit:10;}
	.st18{fill:none;stroke:#7B7F84;stroke-width:5;stroke-linecap:round;stroke-miterlimit:10;}
	.st19{fill:none;stroke:#9C743B;stroke-width:5;stroke-miterlimit:10;}
	.st20{fill:none;stroke:#9C743B;stroke-width:5;stroke-linecap:round;stroke-miterlimit:10;}
</style>
<path class="st5" d="M83.55,183.17h64.33c0,0,10.41,0.11,28.88-14.07c20.22-15.52,21.01-21.38,22.13-24.76
	c1.13-3.38,1.5-13.32-2.44-21.57c-3.94-8.25-6.94-13.69-5.25-19.69c0,0,0.7-1.69,7.32-2.82c0.3-0.05,0.37-0.47,0.08-0.59
	c-1.04-0.47-2.46-1.32-2.34-2.4c0,0-3.19-12.57-18.19-12.57c0,0-14.07-0.38-14.07,20.44s-7.5,25.7-7.5,25.7l-66.41,66.41
	c-0.46,0.46-0.2,1.23,0.44,1.34c1.64,0.27,5.09,0.36,12-0.96c4.68-0.89,9.13-2.78,13.06-5.48c4.83-3.33,7.28-5.13,10.22-8.99"/>
<circle class="st5" cx="179.47" cy="96.1" r="4.64"/>
<line class="st5" x1="113.2" y1="174.14" x2="136.73" y2="174.14"/>
<line class="st5" x1="120.58" y1="166.77" x2="144.68" y2="166.77"/>
<line class="st5" x1="128.95" y1="158.4" x2="152.14" y2="158.4"/>
<path class="st6" d="M147.88,183.17l-6.02,6.18c-0.72,0.74-0.69,1.93,0.07,2.63l7.39,6.78h-7.72h22.96"/>
<path class="st6" d="M161.76,122.02c0,0,37.28,15.94,15,47.08"/>
</svg>
