<?xml version="1.0" encoding="utf-8"?>
<!-- Generator: Adobe Illustrator 24.0.1, SVG Export Plug-In . SVG Version: 6.00 Build 0)  -->
<svg version="1.1" id="Calque_1" xmlns="http://www.w3.org/2000/svg" xmlns:xlink="http://www.w3.org/1999/xlink" x="0px" y="0px"
	 viewBox="0 0 283.46 283.46" style="enable-background:new 0 0 283.46 283.46;" xml:space="preserve">
<style type="text/css">
	.st0{fill:#DD9C00;}
	.st1{fill:#7B7F84;}
	.st2{fill:#9C743B;}
	.st3{fill:#FFFFFF;}
	.st4{fill:#020304;}
	.st5{fill:none;stroke:#020304;stroke-width:4;stroke-linecap:round;stroke-miterlimit:10;}
	.st6{fill:none;stroke:#020304;stroke-width:4;stroke-linecap:round;stroke-linejoin:round;stroke-miterlimit:10;}
	.st7{fill:#020203;}
	.st8{fill:#030305;}
	.st9{fill:#DD9C00;stroke:#000000;stroke-width:4;stroke-miterlimit:10;}
	.st10{fill:none;stroke:#020304;stroke-width:4;stroke-miterlimit:10;}
	.st11{fill:#7B7F84;stroke:#000000;stroke-width:4;stroke-miterlimit:10;}
	.st12{fill:#9C743B;stroke:#000000;stroke-width:4;stroke-miterlimit:10;}
	.st13{fill:#FFFFFF;stroke:#000000;stroke-width:4;stroke-miterlimit:10;}
	.st14{fill:#FFFFFF;stroke:#020304;stroke-width:4;stroke-miterlimit:10;}
	.st15{fill:none;stroke:#DD9C00;stroke-width:5;stroke-miterlimit:10;}
	.st16{fill:none;stroke:#DD9C00;stroke-width:5;stroke-linecap:round;stroke-miterlimit:10;}
	.st17{fill:none;stroke:#7B7F84;stroke-width:5;stroke-miterlimit:10;}
	.st18{fill:none;stroke:#7B7F84;stroke-width:5;stroke-linecap:round;stroke-miterlimit:10;}
	.st19{fill:none;stroke:#9C743B;stroke-width:5;stroke-miterlimit:10;}
	.st20{fill:none;stroke:#9C743B;stroke-width:5;stroke-linecap:round;stroke-miterlimit:10;}
</style>
<g>
	<path class="st4" d="M207.02,192.67c-7.56,0-16.57-21.84-17.93-54.23v-25.37c0-26.64-21.67-48.3-48.3-48.3s-48.3,21.67-48.3,48.3
		v16.73c0,35.98-9.56,62.87-18.11,62.87c-1.57,0-2.84,1.27-2.84,2.84c0,1.57,1.27,2.84,2.84,2.84h132.65c1.57,0,2.84-1.27,2.84-2.84
		C209.86,193.94,208.59,192.67,207.02,192.67z M84.33,192.67c9.05-11.3,13.84-37.69,13.84-62.87v-16.73
		c0-23.5,19.12-42.62,42.62-42.62s42.62,19.12,42.62,42.62l0,25.48c0.89,21.32,5.46,43.85,13.65,54.11L84.33,192.67L84.33,192.67z"
		/>
	<path class="st4" d="M155.37,201.69c-1.57,0-2.84,1.27-2.84,2.84c0,4.6-5.42,8.49-11.84,8.49s-11.84-3.89-11.84-8.49
		c0-1.57-1.27-2.84-2.84-2.84s-2.84,1.27-2.84,2.84c0,7.81,7.86,14.17,17.52,14.17c9.66,0,17.52-6.36,17.52-14.17
		C158.22,202.96,156.95,201.69,155.37,201.69z"/>
</g>
</svg>
